<svg width="20" height="21" viewBox="0 0 20 21" fill="none" xmlns="http://www.w3.org/2000/svg">
<g id="codesandbox">
<path id="Vector" d="M17.5 13.7853V7.11865C17.4997 6.82638 17.4225 6.53933 17.2763 6.28629C17.13 6.03325 16.9198 5.82312 16.6667 5.67699L10.8333 2.34365C10.58 2.19737 10.2926 2.12036 10 2.12036C9.70744 2.12036 9.42003 2.19737 9.16667 2.34365L3.33333 5.67699C3.08022 5.82312 2.86998 6.03325 2.72372 6.28629C2.57745 6.53933 2.5003 6.82638 2.5 7.11865V13.7853C2.5003 14.0776 2.57745 14.3646 2.72372 14.6177C2.86998 14.8707 3.08022 15.0809 3.33333 15.227L9.16667 18.5603C9.42003 18.7066 9.70744 18.7836 10 18.7836C10.2926 18.7836 10.58 18.7066 10.8333 18.5603L16.6667 15.227C16.9198 15.0809 17.13 14.8707 17.2763 14.6177C17.4225 14.3646 17.4997 14.0776 17.5 13.7853Z" stroke="#FCFDFE" stroke-width="2" stroke-linecap="round" stroke-linejoin="round"/>
<path id="Vector_2" d="M6.25 3.96021L10 6.12687L13.75 3.96021" stroke="#FCFDFE" stroke-width="2" stroke-linecap="round" stroke-linejoin="round"/>
<path id="Vector_3" d="M6.25 16.9436V12.6186L2.5 10.4519" stroke="#FCFDFE" stroke-width="2" stroke-linecap="round" stroke-linejoin="round"/>
<path id="Vector_4" d="M17.5 10.4519L13.75 12.6186V16.9436" stroke="#FCFDFE" stroke-width="2" stroke-linecap="round" stroke-linejoin="round"/>
<path id="Vector_5" d="M2.72461 6.25195L9.99961 10.4603L17.2746 6.25195" stroke="#FCFDFE" stroke-width="2" stroke-linecap="round" stroke-linejoin="round"/>
<path id="Vector_6" d="M10 18.8519V10.4519" stroke="#FCFDFE" stroke-width="2" stroke-linecap="round" stroke-linejoin="round"/>
</g>
</svg>
