<svg width="20" height="21" viewBox="0 0 20 21" fill="none" xmlns="http://www.w3.org/2000/svg">
<g id="file-text">
<path id="Vector" d="M11.6666 2.11865H4.99992C4.55789 2.11865 4.13397 2.29425 3.82141 2.60681C3.50885 2.91937 3.33325 3.34329 3.33325 3.78532V17.1187C3.33325 17.5607 3.50885 17.9846 3.82141 18.2972C4.13397 18.6097 4.55789 18.7853 4.99992 18.7853H14.9999C15.4419 18.7853 15.8659 18.6097 16.1784 18.2972C16.491 17.9846 16.6666 17.5607 16.6666 17.1187V7.11865L11.6666 2.11865Z" stroke="#181B1F" stroke-width="2" stroke-linecap="round" stroke-linejoin="round"/>
<path id="Vector_2" d="M11.6667 2.11865V7.11865H16.6667" stroke="#181B1F" stroke-width="2" stroke-linecap="round" stroke-linejoin="round"/>
<path id="Vector_3" d="M13.3334 11.2852H6.66675" stroke="#181B1F" stroke-width="2" stroke-linecap="round" stroke-linejoin="round"/>
<path id="Vector_4" d="M13.3334 14.6187H6.66675" stroke="#181B1F" stroke-width="2" stroke-linecap="round" stroke-linejoin="round"/>
<path id="Vector_5" d="M8.33341 7.9519H7.50008H6.66675" stroke="#181B1F" stroke-width="2" stroke-linecap="round" stroke-linejoin="round"/>
</g>
</svg>
