<svg width="20" height="21" viewBox="0 0 20 21" fill="none" xmlns="http://www.w3.org/2000/svg">
<g id="file-text">
<path id="Vector" d="M11.6668 2.11865H5.00016C4.55814 2.11865 4.13421 2.29425 3.82165 2.60681C3.50909 2.91937 3.3335 3.34329 3.3335 3.78532V17.1187C3.3335 17.5607 3.50909 17.9846 3.82165 18.2972C4.13421 18.6097 4.55814 18.7853 5.00016 18.7853H15.0002C15.4422 18.7853 15.8661 18.6097 16.1787 18.2972C16.4912 17.9846 16.6668 17.5607 16.6668 17.1187V7.11865L11.6668 2.11865Z" stroke="#FCFDFE" stroke-width="2" stroke-linecap="round" stroke-linejoin="round"/>
<path id="Vector_2" d="M11.6665 2.11865V7.11865H16.6665" stroke="#FCFDFE" stroke-width="2" stroke-linecap="round" stroke-linejoin="round"/>
<path id="Vector_3" d="M13.3332 11.2852H6.6665" stroke="#FCFDFE" stroke-width="2" stroke-linecap="round" stroke-linejoin="round"/>
<path id="Vector_4" d="M13.3332 14.6187H6.6665" stroke="#FCFDFE" stroke-width="2" stroke-linecap="round" stroke-linejoin="round"/>
<path id="Vector_5" d="M8.33317 7.9519H7.49984H6.6665" stroke="#FCFDFE" stroke-width="2" stroke-linecap="round" stroke-linejoin="round"/>
</g>
</svg>
