<svg width="20" height="21" viewBox="0 0 20 21" fill="none" xmlns="http://www.w3.org/2000/svg">
<g id="headphones">
<path id="Vector" d="M2.5 15.4521V10.4521C2.5 8.46302 3.29018 6.55537 4.6967 5.14885C6.10322 3.74232 8.01088 2.95215 10 2.95215C11.9891 2.95215 13.8968 3.74232 15.3033 5.14885C16.7098 6.55537 17.5 8.46302 17.5 10.4521V15.4521" stroke="black" stroke-width="2" stroke-linecap="round" stroke-linejoin="round"/>
<path id="Vector_2" d="M17.5 16.2853C17.5 16.7273 17.3244 17.1513 17.0118 17.4638C16.6993 17.7764 16.2754 17.952 15.8333 17.952H15C14.558 17.952 14.134 17.7764 13.8215 17.4638C13.5089 17.1513 13.3333 16.7273 13.3333 16.2853V13.7853C13.3333 13.3433 13.5089 12.9194 13.8215 12.6068C14.134 12.2942 14.558 12.1187 15 12.1187H17.5V16.2853ZM2.5 16.2853C2.5 16.7273 2.67559 17.1513 2.98816 17.4638C3.30072 17.7764 3.72464 17.952 4.16667 17.952H5C5.44203 17.952 5.86595 17.7764 6.17851 17.4638C6.49107 17.1513 6.66667 16.7273 6.66667 16.2853V13.7853C6.66667 13.3433 6.49107 12.9194 6.17851 12.6068C5.86595 12.2942 5.44203 12.1187 5 12.1187H2.5V16.2853Z" stroke="black" stroke-width="2" stroke-linecap="round" stroke-linejoin="round"/>
</g>
</svg>
