<svg width="25" height="25" viewBox="0 0 25 25" fill="none" xmlns="http://www.w3.org/2000/svg">
<g id="Login logo">
<path id="Vector" d="M23.06 12.36C23.06 11.58 22.99 10.83 22.86 10.11H12.5V14.37H18.42C18.16 15.74 17.38 16.9 16.21 17.68V20.45H19.78C21.86 18.53 23.06 15.71 23.06 12.36Z" fill="#0084FF"/>
<path id="Vector_2" d="M12.5001 23.11C15.4701 23.11 17.9601 22.13 19.7801 20.45L16.2101 17.68C15.2301 18.34 13.9801 18.74 12.5001 18.74C9.64005 18.74 7.21005 16.81 6.34005 14.21H2.68005V17.05C4.49005 20.64 8.20005 23.11 12.5001 23.11Z" fill="#4BAB71"/>
<path id="Vector_3" d="M6.34 14.2C6.12 13.54 5.99 12.84 5.99 12.11C5.99 11.38 6.12 10.68 6.34 10.02V7.17999H2.68C1.93 8.65999 1.5 10.33 1.5 12.11C1.5 13.89 1.93 15.56 2.68 17.04L5.53 14.82L6.34 14.2Z" fill="#FFC224"/>
<path id="Vector_4" d="M12.5001 5.48999C14.1201 5.48999 15.5601 6.04999 16.7101 7.12999L19.8601 3.97999C17.9501 2.19999 15.4701 1.10999 12.5001 1.10999C8.20005 1.10999 4.49005 3.57999 2.68005 7.17999L6.34005 10.02C7.21005 7.41999 9.64005 5.48999 12.5001 5.48999Z" fill="#FF6C3E"/>
</g>
</svg>
