<svg width="20" height="20" viewBox="0 0 20 20" fill="none" xmlns="http://www.w3.org/2000/svg">
<g id="repeat-02" clip-path="url(#clip0_323_507)">
<path id="Icon" d="M9.16663 1.66675L11.6666 4.16675M11.6666 4.16675L9.16663 6.66675M11.6666 4.16675H5.66663C4.26649 4.16675 3.56643 4.16675 3.03165 4.43923C2.56124 4.67892 2.17879 5.06137 1.93911 5.53177C1.66663 6.06655 1.66663 6.76662 1.66663 8.16675V12.9167C1.66663 13.3038 1.66663 13.4973 1.68801 13.6597C1.83571 14.7816 2.71848 15.6643 3.84031 15.812C4.00277 15.8334 4.19628 15.8334 4.58329 15.8334M8.33329 15.8334H14.3333C15.7334 15.8334 16.4335 15.8334 16.9683 15.5609C17.4387 15.3212 17.8211 14.9388 18.0608 14.4684C18.3333 13.9336 18.3333 13.2335 18.3333 11.8334V7.08341C18.3333 6.6964 18.3333 6.50289 18.3119 6.34043C18.1642 5.2186 17.2814 4.33583 16.1596 4.18814C15.9972 4.16675 15.8036 4.16675 15.4166 4.16675M8.33329 15.8334L10.8333 18.3334M8.33329 15.8334L10.8333 13.3334" stroke="#7C878E" stroke-width="2" stroke-linecap="round" stroke-linejoin="round"/>
</g>
<defs>
<clipPath id="clip0_323_507">
<rect width="20" height="20" fill="white"/>
</clipPath>
</defs>
</svg>
