<svg width="20" height="21" viewBox="0 0 20 21" fill="none" xmlns="http://www.w3.org/2000/svg">
<g id="settings" clip-path="url(#clip0_20_2486)">
<path id="Vector" d="M10 12.9521C11.3807 12.9521 12.5 11.8329 12.5 10.4521C12.5 9.07144 11.3807 7.95215 10 7.95215C8.61929 7.95215 7.5 9.07144 7.5 10.4521C7.5 11.8329 8.61929 12.9521 10 12.9521Z" stroke="black" stroke-width="2" stroke-linecap="round" stroke-linejoin="round"/>
<path id="Vector_2" d="M16.1666 12.9523C16.0557 13.2037 16.0226 13.4825 16.0716 13.7528C16.1206 14.0231 16.2495 14.2726 16.4416 14.469L16.4916 14.519C16.6465 14.6738 16.7695 14.8576 16.8534 15.0599C16.9372 15.2622 16.9804 15.4791 16.9804 15.6981C16.9804 15.9172 16.9372 16.134 16.8534 16.3364C16.7695 16.5387 16.6465 16.7225 16.4916 16.8773C16.3368 17.0323 16.153 17.1552 15.9507 17.2391C15.7483 17.323 15.5314 17.3661 15.3124 17.3661C15.0934 17.3661 14.8765 17.323 14.6742 17.2391C14.4719 17.1552 14.288 17.0323 14.1333 16.8773L14.0833 16.8273C13.8869 16.6352 13.6374 16.5063 13.3671 16.4573C13.0967 16.4083 12.8179 16.4414 12.5666 16.5523C12.3201 16.6579 12.1099 16.8333 11.9618 17.0569C11.8138 17.2805 11.7343 17.5425 11.7333 17.8106V17.9523C11.7333 18.3943 11.5577 18.8183 11.2451 19.1308C10.9325 19.4434 10.5086 19.619 10.0666 19.619C9.62456 19.619 9.20064 19.4434 8.88807 19.1308C8.57551 18.8183 8.39992 18.3943 8.39992 17.9523V17.8773C8.39347 17.6015 8.30418 17.334 8.14368 17.1096C7.98317 16.8852 7.75886 16.7142 7.49992 16.619C7.24857 16.508 6.96976 16.475 6.69943 16.524C6.4291 16.573 6.17965 16.7019 5.98325 16.894L5.93325 16.944C5.77846 17.0989 5.59465 17.2219 5.39232 17.3057C5.18999 17.3896 4.97311 17.4328 4.75409 17.4328C4.53506 17.4328 4.31818 17.3896 4.11585 17.3057C3.91352 17.2219 3.72971 17.0989 3.57492 16.944C3.41996 16.7892 3.29703 16.6054 3.21315 16.403C3.12928 16.2007 3.08611 15.9838 3.08611 15.7648C3.08611 15.5458 3.12928 15.3289 3.21315 15.1266C3.29703 14.9242 3.41996 14.7404 3.57492 14.5856L3.62492 14.5356C3.81703 14.3392 3.94591 14.0898 3.99492 13.8195C4.04394 13.5491 4.01085 13.2703 3.89992 13.019C3.79428 12.7725 3.61888 12.5623 3.39531 12.4142C3.17173 12.2662 2.90974 12.1867 2.64159 12.1856H2.49992C2.05789 12.1856 1.63397 12.01 1.32141 11.6975C1.00885 11.3849 0.833252 10.961 0.833252 10.519C0.833252 10.077 1.00885 9.65303 1.32141 9.34047C1.63397 9.02791 2.05789 8.85231 2.49992 8.85231H2.57492C2.85075 8.84586 3.11826 8.75658 3.34267 8.59607C3.56708 8.43556 3.73802 8.21126 3.83325 7.95231C3.94418 7.70096 3.97727 7.42215 3.92826 7.15182C3.87924 6.88149 3.75037 6.63204 3.55825 6.43564L3.50825 6.38564C3.35329 6.23086 3.23036 6.04704 3.14649 5.84471C3.06261 5.64238 3.01944 5.4255 3.01944 5.20648C3.01944 4.98745 3.06261 4.77057 3.14649 4.56824C3.23036 4.36591 3.35329 4.1821 3.50825 4.02731C3.66304 3.87235 3.84685 3.74942 4.04918 3.66555C4.25152 3.58167 4.46839 3.5385 4.68742 3.5385C4.90644 3.5385 5.12332 3.58167 5.32565 3.66555C5.52798 3.74942 5.7118 3.87235 5.86659 4.02731L5.91659 4.07731C6.11298 4.26943 6.36243 4.3983 6.63276 4.44732C6.90309 4.49633 7.18191 4.46324 7.43325 4.35231H7.49992C7.74639 4.24668 7.9566 4.07127 8.10466 3.8477C8.25273 3.62412 8.33218 3.36213 8.33325 3.09398V2.95231C8.33325 2.51028 8.50885 2.08636 8.82141 1.7738C9.13397 1.46124 9.55789 1.28564 9.99992 1.28564C10.4419 1.28564 10.8659 1.46124 11.1784 1.7738C11.491 2.08636 11.6666 2.51028 11.6666 2.95231V3.02731C11.6677 3.29547 11.7471 3.55746 11.8952 3.78103C12.0432 4.00461 12.2534 4.18001 12.4999 4.28564C12.7513 4.39657 13.0301 4.42966 13.3004 4.38065C13.5707 4.33163 13.8202 4.20276 14.0166 4.01064L14.0666 3.96064C14.2214 3.80568 14.4052 3.68275 14.6075 3.59888C14.8098 3.515 15.0267 3.47183 15.2458 3.47183C15.4648 3.47183 15.6817 3.515 15.884 3.59888C16.0863 3.68275 16.2701 3.80568 16.4249 3.96064C16.5799 4.11543 16.7028 4.29925 16.7867 4.50158C16.8706 4.70391 16.9137 4.92079 16.9137 5.13981C16.9137 5.35884 16.8706 5.57572 16.7867 5.77805C16.7028 5.98038 16.5799 6.16419 16.4249 6.31898L16.3749 6.36898C16.1828 6.56538 16.0539 6.81482 16.0049 7.08515C15.9559 7.35548 15.989 7.6343 16.0999 7.88564V7.95231C16.2056 8.19879 16.381 8.40899 16.6045 8.55706C16.8281 8.70512 17.0901 8.78458 17.3583 8.78564H17.4999C17.9419 8.78564 18.3659 8.96124 18.6784 9.2738C18.991 9.58636 19.1666 10.0103 19.1666 10.4523C19.1666 10.8943 18.991 11.3183 18.6784 11.6308C18.3659 11.9434 17.9419 12.119 17.4999 12.119H17.4249C17.1568 12.12 16.8948 12.1995 16.6712 12.3476C16.4476 12.4956 16.2722 12.7058 16.1666 12.9523Z" stroke="black" stroke-width="2" stroke-linecap="round" stroke-linejoin="round"/>
</g>
<defs>
<clipPath id="clip0_20_2486">
<rect width="20" height="20" fill="white" transform="translate(0 0.452148)"/>
</clipPath>
</defs>
</svg>
