<svg width="56" height="62" viewBox="0 0 56 62" fill="none" xmlns="http://www.w3.org/2000/svg">
<g id="SvgjsSvg2043" clip-path="url(#clip0_12_482)">
<g id="Group">
<path id="Vector" d="M13.8631 6.89896C14.7762 6.89896 15.652 6.53621 16.2977 5.89052C16.9434 5.24483 17.3061 4.36909 17.3061 3.45595C17.3061 2.54281 16.9434 1.66706 16.2977 1.02137C15.652 0.375684 14.7762 0.0129396 13.8631 0.0129396H3.53407C3.0819 0.0128265 2.63413 0.101806 2.21636 0.274793C1.79858 0.44778 1.41898 0.701386 1.09925 1.02112C0.779511 1.34086 0.525905 1.72046 0.352918 2.13823C0.179931 2.55601 0.0909515 3.00377 0.0910646 3.45595V58.5441C0.0909515 58.9963 0.179931 59.444 0.352918 59.8618C0.525905 60.2796 0.779511 60.6592 1.09925 60.9789C1.41898 61.2987 1.79858 61.5523 2.21636 61.7253C2.63413 61.8982 3.0819 61.9872 3.53407 61.9871H13.8631C14.7762 61.9871 15.652 61.6244 16.2977 60.9787C16.9434 60.333 17.3061 59.4572 17.3061 58.5441C17.3061 57.631 16.9434 56.7552 16.2977 56.1095C15.652 55.4638 14.7762 55.1011 13.8631 55.1011H6.97708V6.89896H13.8631Z" fill="white"/>
<path id="Vector_2" d="M51.7361 0.0129396H41.4071C40.494 0.0129396 39.6182 0.375684 38.9725 1.02137C38.3269 1.66706 37.9641 2.54281 37.9641 3.45595C37.9641 4.36909 38.3269 5.24483 38.9725 5.89052C39.6182 6.53621 40.494 6.89896 41.4071 6.89896H48.2931V55.1011H41.4071C40.494 55.1011 39.6182 55.4638 38.9725 56.1095C38.3269 56.7552 37.9641 57.631 37.9641 58.5441C37.9641 59.4572 38.3269 60.333 38.9725 60.9787C39.6182 61.6244 40.494 61.9871 41.4071 61.9871H51.7361C52.1883 61.9872 52.6361 61.8982 53.0539 61.7253C53.4716 61.5523 53.8512 61.2987 54.171 60.9789C54.4907 60.6592 54.7443 60.2796 54.9173 59.8618C55.0903 59.444 55.1793 58.9963 55.1792 58.5441V3.45595C55.1793 3.00377 55.0903 2.55601 54.9173 2.13823C54.7443 1.72046 54.4907 1.34086 54.171 1.02112C53.8512 0.701386 53.4716 0.44778 53.0539 0.274793C52.6361 0.101806 52.1883 0.0128265 51.7361 0.0129396Z" fill="white"/>
</g>
</g>
<defs>
<clipPath id="clip0_12_482">
<rect width="55.0882" height="61.9742" fill="white" transform="translate(0.0910645 0.0129395)"/>
</clipPath>
</defs>
</svg>
